<svg width="35" height="35" viewBox="0 0 35 35" fill="none" xmlns="http://www.w3.org/2000/svg">
<circle cx="17.8529" cy="17.5352" r="17" fill="white"/>
<g clip-path="url(#clip0_36_17)">
<path d="M21.3339 10.5352H15.3719C13.4315 10.5352 11.8529 12.1137 11.8529 14.0541V20.0163C11.8529 21.9566 13.4315 23.5351 15.3719 23.5351H21.334C23.2743 23.5351 24.8529 21.9566 24.8529 20.0163V14.0541C24.8529 12.1137 23.2743 10.5352 21.3339 10.5352V10.5352ZM24.0908 20.0163C24.0908 21.5363 22.8541 22.773 21.3339 22.773H15.3719C13.8517 22.773 12.615 21.5363 12.615 20.0163V14.0541C12.615 12.534 13.8517 11.2973 15.3719 11.2973H21.334C22.8541 11.2973 24.0908 12.534 24.0908 14.0541V20.0163Z" fill="black"/>
<path d="M18.3529 13.4805C16.3929 13.4805 14.7983 15.075 14.7983 17.035C14.7983 18.9951 16.3929 20.5896 18.3529 20.5896C20.313 20.5896 21.9075 18.9951 21.9075 17.035C21.9075 15.075 20.313 13.4805 18.3529 13.4805ZM18.3529 19.8275C16.8132 19.8275 15.5605 18.5748 15.5605 17.035C15.5605 15.4953 16.8132 14.2426 18.3529 14.2426C19.8927 14.2426 21.1454 15.4953 21.1454 17.035C21.1454 18.5748 19.8927 19.8275 18.3529 19.8275Z" fill="black"/>
<path d="M21.9925 12.2183C21.4133 12.2183 20.9422 12.6895 20.9422 13.2686C20.9422 13.8478 21.4133 14.319 21.9925 14.319C22.5717 14.319 23.0429 13.8478 23.0429 13.2686C23.0429 12.6894 22.5717 12.2183 21.9925 12.2183ZM21.9925 13.5568C21.8336 13.5568 21.7043 13.4275 21.7043 13.2686C21.7043 13.1096 21.8336 12.9804 21.9925 12.9804C22.1515 12.9804 22.2808 13.1096 22.2808 13.2686C22.2808 13.4275 22.1515 13.5568 21.9925 13.5568Z" fill="black"/>
</g>
<defs>
<clipPath id="clip0_36_17">
<rect width="13" height="13" fill="white" transform="translate(11.8529 10.5352)"/>
</clipPath>
</defs>
</svg>
