<svg width="38" height="34" viewBox="0 0 38 34" fill="none" xmlns="http://www.w3.org/2000/svg">
<ellipse cx="19" cy="16.6162" rx="18.1471" ry="16.6162" fill="white"/>
<g clip-path="url(#clip0_36_31)">
<path d="M24.3344 21.5034V21.5029H24.3374V17.5598C24.3374 15.6307 23.8838 14.1448 21.4209 14.1448C20.2369 14.1448 19.4423 14.7397 19.118 15.3037H19.0837V14.3249H16.7485V21.5029H19.1801V17.9486C19.1801 17.0128 19.3738 16.1079 20.6396 16.1079C21.8867 16.1079 21.9053 17.1758 21.9053 18.0087V21.5034H24.3344Z" fill="black"/>
<path d="M12.7889 14.3252H15.2235V21.5033H12.7889V14.3252Z" fill="black"/>
<path d="M14.0052 10.7517C13.2268 10.7517 12.5952 11.3301 12.5952 12.0428C12.5952 12.7556 13.2268 13.346 14.0052 13.346C14.7836 13.346 15.4152 12.7556 15.4152 12.0428C15.4148 11.3301 14.7831 10.7517 14.0052 10.7517V10.7517Z" fill="black"/>
</g>
<defs>
<clipPath id="clip0_36_31">
<rect width="11.7422" height="10.7517" fill="white" transform="translate(12.5952 10.7517)"/>
</clipPath>
</defs>
</svg>
